<?xml version="1.0" standalone="no"?>
<!DOCTYPE svg PUBLIC "-//W3C//DTD SVG 20010904//EN"
 "http://www.w3.org/TR/2001/REC-SVG-20010904/DTD/svg10.dtd">
<svg version="1.0" xmlns="http://www.w3.org/2000/svg"
 width="700.000000pt" height="490.000000pt" viewBox="0 0 700.000000 490.000000"
 preserveAspectRatio="xMidYMid meet">

<g transform="translate(0.000000,490.000000) scale(0.100000,-0.100000)"
fill="#000000" stroke="none">
<path d="M1060 4385 l0 -135 70 0 70 0 0 -135 0 -135 -155 0 -155 0 0 -130 0
-130 155 0 155 0 0 -85 0 -85 -182 -2 -183 -3 -3 -117 -3 -118 -59 0 -60 0 0
-130 0 -130 130 0 130 0 0 130 0 130 -60 0 -60 0 0 110 0 110 175 0 175 0 0
-110 0 -110 -60 0 -60 0 0 -130 0 -130 130 0 130 0 0 130 0 130 -60 0 c-68 0
-61 -14 -61 120 0 39 0 77 0 85 1 13 36 15 256 15 l255 0 0 -110 0 -110 -65 0
-65 0 0 -130 0 -130 135 0 135 0 0 130 0 130 -65 0 -64 0 -3 118 -3 117 -257
3 -258 2 -1 25 c0 14 -1 51 -1 83 l-1 57 167 3 166 2 0 130 0 130 -166 2 -167
3 1 130 1 130 316 3 315 2 0 -135 0 -135 -100 0 -100 0 0 -130 0 -130 325 0
325 0 0 130 0 130 -215 0 -215 0 0 135 0 134 88 3 87 3 3 133 3 132 -496 0
-495 0 0 -135z m970 0 l0 -115 -480 0 -480 0 0 115 0 115 480 0 480 0 0 -115z
m-498 -519 c2 -57 2 -111 0 -120 -3 -14 -36 -16 -313 -16 l-309 0 0 120 0 120
309 0 310 0 3 -104z m756 -13 l-3 -118 -312 -3 -313 -2 0 120 0 120 315 0 316
0 -3 -117z m-1328 -673 l0 -120 -120 0 -120 0 0 120 0 120 120 0 120 0 0 -120z
m370 0 l0 -120 -120 0 -120 0 0 120 0 120 120 0 120 0 0 -120z m520 0 l0 -120
-115 0 -115 0 0 120 0 120 115 0 115 0 0 -120z"/>
<path d="M4643 4506 c-121 -40 -195 -141 -197 -271 -1 -60 3 -79 30 -130 59
-116 245 -415 254 -410 10 6 210 337 251 415 35 67 34 185 -3 256 -31 59 -74
99 -137 127 -56 25 -144 31 -198 13z m224 -44 c63 -40 108 -105 124 -178 19
-86 -1 -138 -142 -371 l-123 -201 -121 201 c-67 111 -128 220 -135 241 -19 60
-9 163 22 211 62 97 137 137 248 133 66 -3 82 -7 127 -36z"/>
<path d="M4660 4352 c-142 -78 -81 -295 79 -279 80 9 133 67 133 147 0 111
-117 184 -212 132z m130 -15 c35 -18 70 -74 70 -114 0 -61 -41 -116 -98 -133
-69 -19 -154 35 -168 106 -9 46 20 111 61 135 35 22 99 24 135 6z"/>
<path d="M5926 4441 c-115 -31 -211 -62 -213 -68 -3 -7 8 -20 22 -29 l27 -17
-176 -176 c-97 -97 -176 -180 -176 -184 0 -4 103 -7 228 -7 l228 0 63 64 64
65 19 -25 c11 -13 25 -24 31 -24 10 0 127 412 127 448 0 18 -17 15 -244 -47z
m203 -68 c-16 -60 -41 -153 -56 -208 -15 -55 -28 -102 -29 -103 -1 -2 -12 6
-23 17 -12 12 -25 21 -29 21 -4 0 -37 -29 -72 -65 l-64 -65 -208 0 c-114 0
-208 3 -208 8 0 4 75 81 165 172 91 90 165 167 165 170 0 4 -9 16 -20 28 -11
11 -16 23 -12 26 5 3 89 26 188 52 98 25 181 48 183 50 2 2 14 4 27 4 l22 0
-29 -107z"/>
<path d="M3365 4330 c-4 -7 77 -10 235 -10 158 0 239 3 235 10 -4 6 -93 10
-235 10 -142 0 -231 -4 -235 -10z"/>
<path d="M2520 4150 c0 -7 225 -10 654 -10 426 0 657 3 661 10 4 7 -217 10
-654 10 -434 0 -661 -3 -661 -10z"/>
<path d="M4129 4081 c-26 -27 -30 -37 -25 -64 7 -39 48 -77 82 -77 15 0 38 12
55 29 53 53 30 126 -43 138 -32 5 -41 1 -69 -26z m85 8 c13 -7 30 -25 37 -41
24 -59 -50 -110 -107 -73 -34 22 -33 76 2 104 31 24 35 25 68 10z"/>
<path d="M2593 3973 c42 -2 112 -2 155 0 42 1 7 3 -78 3 -85 0 -120 -2 -77 -3z"/>
<path d="M5063 3910 c-12 -5 -26 -18 -32 -29 -7 -13 -11 -141 -11 -370 l0
-350 26 -20 c26 -21 35 -21 610 -21 l583 0 28 24 28 24 0 352 0 352 -28 24
-28 24 -577 -1 c-317 0 -587 -4 -599 -9z m1197 -30 c19 -19 20 -33 20 -358 0
-289 -2 -341 -16 -360 l-15 -22 -594 0 -594 0 -15 22 c-14 19 -16 71 -16 360
0 325 1 339 20 358 20 20 33 20 605 20 572 0 585 0 605 -20z"/>
<path d="M5969 3781 c-16 -17 -29 -40 -29 -54 0 -15 -13 -38 -30 -55 -32 -32
-38 -68 -18 -105 20 -39 39 -45 142 -45 91 0 101 2 123 24 34 34 31 84 -7 127
-16 19 -30 45 -30 58 0 29 -7 40 -40 62 -37 26 -77 21 -111 -12z m130 -27 c17
-38 14 -54 -11 -54 -13 0 -29 -4 -36 -9 -13 -8 -83 7 -97 20 -13 14 17 61 47
73 40 17 81 5 97 -30z m-94 -77 c13 -10 15 -16 6 -21 -12 -8 -41 10 -41 25 0
13 13 11 35 -4z m85 -12 c-16 -19 -40 -20 -40 -1 0 8 10 16 23 18 29 5 32 2
17 -17z m-119 -14 c16 -16 29 -39 29 -51 0 -12 4 -30 10 -40 8 -15 6 -20 -10
-25 -80 -25 -138 64 -82 128 19 22 18 22 53 -12z m179 2 c41 -52 1 -127 -64
-121 -30 3 -31 5 -28 46 3 38 40 97 64 101 4 0 16 -11 28 -26z m-110 -3 c0 -5
-5 -10 -11 -10 -5 0 -7 5 -4 10 3 6 8 10 11 10 2 0 4 -4 4 -10z m5 -31 c9 -13
-3 -59 -14 -59 -11 0 -24 48 -16 60 8 13 22 13 30 -1z"/>
<path d="M5150 3725 l0 -65 310 0 310 0 0 65 0 65 -310 0 -310 0 0 -65z m610
0 l0 -55 -295 0 -295 0 0 55 0 55 295 0 295 0 0 -55z"/>
<path d="M5283 3573 c75 -2 199 -2 275 0 75 1 13 3 -138 3 -151 0 -213 -2
-137 -3z"/>
<path d="M5160 3470 c0 -6 45 -10 115 -10 70 0 115 4 115 10 0 6 -45 10 -115
10 -70 0 -115 -4 -115 -10z"/>
<path d="M5530 3470 c0 -6 47 -10 120 -10 73 0 120 4 120 10 0 6 -47 10 -120
10 -73 0 -120 -4 -120 -10z"/>
<path d="M5140 3300 l0 -50 90 0 c86 0 90 1 96 24 3 13 4 35 2 47 -3 23 -7 24
-95 27 l-93 3 0 -51z m170 -5 l0 -35 -80 0 -80 0 0 35 0 35 80 0 80 0 0 -35z"/>
<path d="M5420 3300 l0 -51 91 3 92 3 3 30 c7 61 1 65 -97 65 l-89 0 0 -50z
m170 -5 l0 -35 -80 0 -80 0 0 35 0 35 80 0 80 0 0 -35z"/>
<path d="M5700 3300 l0 -50 90 0 c86 0 90 1 96 24 3 13 4 35 2 47 -3 23 -7 24
-95 27 l-93 3 0 -51z m170 -5 l0 -35 -80 0 -80 0 0 35 0 35 80 0 80 0 0 -35z"/>
<path d="M5980 3300 l0 -51 93 3 c90 3 92 4 94 28 6 67 1 70 -97 70 l-90 0 0
-50z m170 -5 l0 -35 -80 0 -80 0 0 35 0 35 80 0 80 0 0 -35z"/>
<path d="M3385 3884 c-16 -2 -65 -9 -109 -15 -221 -30 -499 -154 -674 -302
l-44 -37 -114 0 -114 0 0 -130 0 -130 -37 -57 c-153 -239 -231 -571 -203 -863
23 -243 111 -494 236 -671 54 -76 157 -200 190 -228 16 -14 54 -46 84 -71 123
-105 292 -198 464 -255 279 -94 632 -89 911 11 401 144 718 463 862 868 137
388 90 851 -123 1196 l-44 72 0 129 0 129 -114 0 -114 0 -44 37 c-162 136
-398 248 -620 293 -97 20 -325 34 -393 24z m415 -43 c134 -33 207 -60 313
-112 103 -51 208 -117 267 -168 l35 -30 -915 0 -915 0 35 30 c157 134 403 247
635 290 139 26 420 21 545 -10z m140 -941 l0 -460 -80 0 -80 0 0 460 0 460 80
0 80 0 0 -460z m362 -33 c2 -217 2 -401 0 -410 -3 -14 -17 -17 -83 -17 l-79 0
0 410 0 410 80 0 80 0 2 -393z m-1959 -907 c6 0 193 0 415 0 l402 0 0 -174 0
-175 -97 -4 c-54 -1 143 -3 437 -3 294 0 491 2 438 3 l-98 4 0 175 0 175 415
-3 c409 -3 415 -3 415 17 0 11 0 296 0 633 0 336 3 612 7 612 17 0 111 -186
147 -290 46 -131 66 -246 73 -400 7 -181 -12 -325 -66 -489 -71 -215 -165
-373 -322 -539 l-60 -62 -519 0 c-337 0 -520 -3 -520 -10 0 -6 181 -11 507
-12 l507 -3 -89 -66 c-164 -122 -352 -206 -555 -250 -148 -32 -411 -33 -552
-1 -115 25 -224 61 -310 101 l-63 29 413 1 c267 1 412 5 412 11 0 7 -152 10
-435 10 l-435 0 -43 27 c-234 151 -423 363 -531 594 -101 218 -131 353 -131
604 0 153 4 196 23 285 35 155 95 307 167 425 l30 50 3 -637 c2 -500 5 -638
15 -638z m1775 843 l-3 -358 -54 -3 c-30 -2 -65 -1 -78 3 l-23 5 0 355 0 355
80 0 80 0 -2 -357z m-898 -13 l0 -350 -80 0 -80 0 0 350 0 350 80 0 80 0 0
-350z m540 -5 l0 -345 -80 0 -80 0 0 345 0 345 80 0 80 0 0 -345z m-180 -50
l0 -295 -80 0 -80 0 0 295 0 295 80 0 80 0 0 -295z m-943 259 c15 -24 15 -29
2 -53 -11 -20 -22 -26 -49 -26 -27 0 -38 6 -49 26 -13 24 -13 29 2 53 12 18
26 26 47 26 21 0 35 -8 47 -26z m225 9 c22 -20 23 -51 1 -75 -32 -36 -93 -15
-93 32 0 53 53 79 92 43z m538 -322 l0 -229 -22 -6 c-30 -8 -102 -8 -122 0
-14 5 -16 36 -16 235 l0 229 80 0 80 0 0 -229z m-360 -136 l0 -105 -80 0 -80
0 0 105 0 105 80 0 80 0 0 -105z m-180 -50 l0 -55 -80 0 -80 0 0 55 0 55 80 0
80 0 0 -55z m960 -710 l0 -175 -320 0 -320 0 0 175 0 175 320 0 320 0 0 -175z"/>
<path d="M2566 1825 c-26 -27 -29 -56 -8 -84 45 -61 128 -25 113 49 -9 45 -73
66 -105 35z m85 -26 c17 -33 -3 -69 -39 -69 -33 0 -52 16 -52 45 0 29 19 45
52 45 18 0 31 -7 39 -21z"/>
<path d="M2723 1773 c9 -2 25 -2 35 0 9 3 1 5 -18 5 -19 0 -27 -2 -17 -5z"/>
<path d="M2600 1630 c0 -27 5 -50 10 -50 6 0 10 23 10 50 0 28 -4 50 -10 50
-5 0 -10 -22 -10 -50z"/>
<path d="M4277 1603 c18 -2 50 -2 70 0 21 2 7 4 -32 4 -38 0 -55 -2 -38 -4z"/>
<path d="M3005 1430 c-4 -6 27 -10 85 -10 58 0 89 4 85 10 -3 6 -42 10 -85 10
-43 0 -82 -4 -85 -10z"/>
<path d="M3910 1330 c0 -27 -3 -30 -31 -30 -16 0 -28 -4 -25 -9 3 -4 17 -6 31
-3 23 4 25 2 25 -36 0 -23 5 -44 10 -47 6 -4 10 10 10 34 0 29 4 41 15 42 28
3 33 4 41 12 4 4 -7 7 -24 7 -29 0 -32 3 -32 30 0 17 -4 30 -10 30 -5 0 -10
-13 -10 -30z"/>
<path d="M5360 2420 l0 -480 -150 0 -150 0 0 -133 c0 -126 1 -134 26 -171 45
-66 42 -66 539 -66 482 0 485 0 535 54 l25 28 3 254 3 254 54 0 c30 0 55 5 55
10 0 6 -25 10 -55 10 l-55 0 0 155 0 155 63 2 62 1 -60 6 -60 6 -3 73 -3 72
56 0 c30 0 55 5 55 10 0 6 -25 10 -55 10 l-55 0 0 115 0 115 -415 0 -415 0 0
-480z m820 360 l0 -110 -356 0 c-234 0 -353 -3 -349 -10 4 -6 133 -10 356 -10
l349 0 0 -75 0 -75 -357 -2 -358 -3 358 -2 357 -3 0 -155 0 -155 -349 0 c-223
0 -352 -4 -356 -10 -4 -7 115 -10 349 -10 l356 0 0 -230 c0 -245 -5 -275 -49
-314 -32 -29 -131 -34 -176 -11 -53 29 -65 67 -65 210 l0 125 -255 0 -255 0 0
475 0 475 400 0 400 0 0 -110z m-310 -970 c0 -119 13 -168 52 -201 21 -19 12
-19 -369 -19 -390 0 -390 0 -424 23 -46 31 -58 72 -58 200 l-1 107 400 0 400
0 0 -110z"/>
<path d="M5593 2333 c71 -2 183 -2 250 0 67 1 10 3 -128 3 -137 0 -192 -2
-122 -3z"/>
<path d="M5568 2003 c57 -2 147 -2 200 0 53 1 7 3 -103 3 -110 0 -154 -2 -97
-3z"/>
<path d="M5953 2003 c15 -2 39 -2 55 0 15 2 2 4 -28 4 -30 0 -43 -2 -27 -4z"/>
<path d="M1370 2517 l0 -323 -65 -64 -65 -64 0 232 0 232 -100 0 -101 0 2
-285 1 -285 46 0 c36 0 43 -3 34 -12 -7 -7 -12 -17 -12 -24 0 -11 149 -168
193 -203 17 -13 34 1 202 169 l184 184 26 -24 c14 -13 27 -22 29 -19 4 4 33
110 87 313 16 60 27 112 24 115 -4 4 -142 -29 -272 -65 l-23 -6 0 226 0 226
-95 0 -95 0 0 -323z m178 87 l2 -221 -55 -12 c-30 -7 -57 -16 -60 -21 -2 -4 4
-19 15 -32 l19 -25 -45 -44 -44 -43 0 305 c0 168 3 309 7 313 4 4 41 5 83 4
l75 -3 3 -221z m-320 -318 l2 -230 -42 -43 c-37 -37 -48 -43 -85 -43 l-43 0 0
275 0 276 83 -3 82 -3 3 -229z m566 -25 c-26 -99 -51 -186 -55 -193 -6 -9 -13
-8 -29 7 -21 19 -21 19 -205 -165 -167 -167 -185 -182 -201 -169 -10 8 -55 52
-102 98 l-84 84 181 181 c99 100 184 184 188 188 3 5 -4 16 -16 27 -12 11 -18
21 -14 24 4 2 71 21 148 42 77 20 160 43 185 50 25 7 47 11 49 9 1 -1 -18 -84
-45 -183z"/>
<path d="M727 2323 c-4 -3 -7 -87 -7 -185 l0 -178 100 0 100 0 0 185 0 185
-93 0 c-52 0 -97 -3 -100 -7z m183 -183 l0 -170 -85 0 -85 0 0 170 0 170 85 0
85 0 0 -170z"/>
<path d="M590 1900 c0 -6 83 -10 230 -10 147 0 230 4 230 10 0 6 -83 10 -230
10 -147 0 -230 -4 -230 -10z"/>
<path d="M505 1578 c-3 -7 -4 -184 -3 -393 l3 -380 578 -3 577 -2 0 -183 c0
-100 3 -192 6 -204 l6 -23 422 2 c231 1 392 4 356 7 l-65 6 -3 48 -3 47 125 0
c72 0 127 4 131 10 4 6 -40 10 -124 10 l-131 0 0 225 0 225 38 1 37 2 -35 6
c-35 6 -35 6 -38 64 l-3 57 -59 0 -60 0 0 98 c0 87 -3 102 -28 147 -31 58
-104 112 -163 121 l-38 6 -3 57 -3 56 -758 3 c-602 2 -759 0 -762 -10z m1515
-58 c0 -42 -3 -50 -19 -50 -10 0 -37 -7 -60 -15 -22 -8 -41 -10 -41 -5 0 6
-91 10 -232 10 l-232 0 46 -47 c85 -87 116 -202 83 -304 -20 -61 -63 -128
-100 -157 -14 -11 -25 -23 -25 -26 0 -3 51 -6 113 -6 l112 0 -3 -55 -4 -55
-569 0 -569 0 0 380 0 380 750 0 750 0 0 -50z m0 -246 l0 -174 -60 0 -60 0 0
160 c0 155 1 160 23 171 26 15 79 27 90 22 4 -2 7 -83 7 -179z m112 155 c78
-39 117 -121 118 -246 l0 -83 -110 0 -110 0 0 180 0 180 33 -7 c17 -3 49 -14
69 -24z m-249 15 c4 -4 -9 -25 -29 -47 -54 -59 -67 -99 -68 -202 l-1 -90 -60
-5 -60 -5 1 -77 1 -78 -95 0 -94 0 31 35 c42 48 70 106 78 160 l6 45 53 0 c29
0 56 5 59 10 4 6 -16 10 -53 10 l-59 0 -6 45 c-8 54 -46 131 -81 164 -14 14
-26 28 -26 33 0 9 394 11 403 2z m7 -194 l0 -150 -45 0 -45 0 0 84 c0 45 5 98
11 117 13 39 55 99 70 99 5 0 9 -62 9 -150z m433 -170 l47 0 0 -50 0 -50 -345
0 -345 0 0 49 0 50 53 3 c44 3 161 2 590 -2z m47 -335 l0 -225 -345 0 -345 0
0 225 0 225 345 0 345 0 0 -225z m-17 -245 c15 0 18 -7 15 -47 l-3 -48 -342
-3 -343 -2 0 50 0 50 198 2 c108 2 256 2 327 1 72 -1 138 -3 148 -3z"/>
<path d="M640 1190 l0 -270 225 0 c124 0 225 3 225 6 0 3 -22 31 -50 61 -62
68 -85 136 -78 232 6 78 30 130 87 189 23 23 41 44 41 47 0 3 -101 5 -225 5
l-225 0 0 -270z m382 213 c-37 -44 -63 -105 -77 -175 -5 -27 -8 -28 -61 -28
-34 0 -53 -4 -49 -10 3 -5 28 -10 55 -10 46 0 50 -2 56 -27 17 -79 40 -130 77
-170 l40 -43 -207 0 -206 0 0 255 0 255 206 0 205 0 -39 -47z"/>
<path d="M1170 1443 c-60 -22 -130 -95 -154 -162 -46 -129 18 -278 144 -334
55 -25 158 -27 211 -4 175 73 219 308 84 439 -22 21 -55 45 -75 55 -48 23
-154 27 -210 6z m210 -23 c115 -59 172 -213 121 -325 -44 -96 -114 -145 -222
-153 -74 -5 -128 15 -187 72 -88 83 -103 220 -34 321 29 42 116 101 161 108
45 7 124 -4 161 -23z"/>
<path d="M1235 1400 c3 -13 -6 -25 -30 -40 -37 -23 -45 -38 -45 -83 0 -44 22
-63 111 -92 87 -29 105 -48 95 -99 -5 -28 -46 -66 -70 -66 -3 0 -6 29 -6 65 0
37 -4 65 -10 65 -6 0 -10 -28 -10 -65 0 -37 -4 -65 -10 -65 -6 0 -10 32 -10
77 0 42 -3 73 -7 70 -3 -4 -5 -36 -4 -72 2 -52 -1 -65 -13 -65 -19 0 -56 47
-56 71 0 11 -4 19 -10 19 -28 0 5 -79 43 -99 13 -7 28 -25 34 -39 10 -25 11
-26 12 -4 1 27 21 30 21 2 0 -11 5 -20 10 -20 6 0 10 9 10 20 0 13 11 24 33
33 44 19 62 43 62 87 0 52 -25 76 -104 100 -81 25 -87 28 -101 65 -9 24 -8 33
8 54 31 42 47 33 48 -27 2 -74 14 -78 14 -4 0 33 5 64 10 67 6 4 10 -20 10
-64 0 -41 4 -71 10 -71 6 0 10 28 10 65 0 50 3 65 14 65 17 0 56 -46 56 -66 0
-8 5 -14 10 -14 29 0 -5 64 -46 86 -23 13 -34 26 -34 41 0 13 -4 23 -10 23 -5
0 -10 -12 -10 -26 0 -14 -4 -23 -10 -19 -5 3 -10 15 -10 26 0 10 -4 19 -9 19
-6 0 -8 -9 -6 -20z"/>
<path d="M1974 879 c-34 -17 -57 -65 -50 -104 7 -34 55 -85 81 -85 10 0 15
-17 18 -57 l3 -58 2 58 c2 43 6 57 17 57 8 0 29 13 46 28 27 24 31 35 31 73
-1 36 -6 49 -32 72 -32 29 -76 35 -116 16z m114 -35 c47 -54 9 -138 -63 -138
-29 0 -43 7 -61 28 -34 38 -31 80 6 118 26 25 36 29 63 24 18 -3 42 -17 55
-32z"/>
<path d="M4600 1203 l0 -138 -100 3 c-66 2 -100 0 -100 -7 0 -7 36 -11 100
-11 l100 0 0 -90 0 -90 -290 0 c-192 0 -290 -3 -290 -10 0 -7 96 -10 290 -8
l290 3 0 -52 0 -52 -67 -4 -68 -3 68 -2 67 -2 0 -48 c0 -42 -4 -51 -30 -70
-16 -12 -32 -33 -35 -45 -9 -33 11 -75 40 -89 23 -10 25 -16 25 -79 l0 -68
-152 -4 c-84 -1 217 -4 670 -5 l822 -2 0 308 1 307 32 20 c52 33 50 112 -3
140 l-30 16 0 109 0 110 -670 0 -670 0 0 -137z m1328 50 l3 -73 -656 0 -655 0
0 75 0 75 653 -2 652 -3 3 -72z m0 -115 c2 -18 -1 -28 -9 -28 -27 0 -59 -43
-59 -79 0 -35 -3 -38 -92 -92 -51 -31 -168 -102 -260 -157 -167 -101 -167
-101 -196 -85 -31 18 -72 13 -94 -11 -11 -11 -32 -4 -128 44 -109 55 -115 59
-117 90 -4 61 -51 89 -108 66 -38 -16 -51 -47 -42 -95 5 -25 -2 -36 -73 -100
-74 -67 -80 -70 -104 -59 l-26 11 0 264 0 263 653 -2 652 -3 3 -27z m35 -49
c29 -16 37 -28 37 -61 0 -52 -72 -76 -110 -38 -28 28 -25 64 6 89 31 24 37 25
67 10z m-65 -125 l32 -15 0 -305 0 -304 -655 0 -655 0 0 69 c0 61 2 70 20 76
32 10 53 50 47 90 -5 32 -2 38 70 102 73 65 78 68 120 65 28 -3 53 2 68 12 23
15 29 13 137 -39 108 -52 113 -56 114 -87 2 -38 43 -78 80 -78 37 0 74 42 74
84 0 33 4 37 121 108 67 40 181 110 253 155 72 44 134 82 137 82 3 1 20 -6 37
-15z m-960 -100 c29 -20 29 -67 0 -94 -29 -27 -54 -25 -83 5 -30 29 -32 54 -5
83 24 26 57 28 88 6z m385 -196 c34 -40 8 -98 -45 -98 -66 0 -92 69 -41 109
30 24 58 20 86 -11z m-677 -56 c53 -35 24 -122 -40 -122 -45 0 -74 81 -40 114
16 17 61 21 80 8z"/>
<path d="M4678 1289 c-21 -12 -24 -49 -6 -67 18 -18 42 -15 63 7 10 12 34 21
59 24 l41 4 -42 1 c-28 1 -50 9 -63 22 -23 23 -28 24 -52 9z m46 -25 c8 -21
-1 -34 -24 -34 -10 0 -21 4 -24 9 -10 16 5 41 24 41 10 0 21 -7 24 -16z"/>
<path d="M4883 1253 c15 -2 39 -2 55 0 15 2 2 4 -28 4 -30 0 -43 -2 -27 -4z"/>
<path d="M4720 1060 c0 -6 130 -10 371 -10 244 0 368 3 364 10 -4 6 -138 10
-371 10 -236 0 -364 -4 -364 -10z"/>
<path d="M4730 960 c0 -6 43 -10 109 -10 63 0 112 4 116 10 4 6 -35 10 -109
10 -71 0 -116 -4 -116 -10z"/>
<path d="M5080 960 c0 -5 25 -10 55 -10 30 0 55 5 55 10 0 6 -25 10 -55 10
-30 0 -55 -4 -55 -10z"/>
<path d="M5475 560 c-4 -7 55 -10 170 -10 115 0 174 3 170 10 -4 6 -72 10
-170 10 -98 0 -166 -4 -170 -10z"/>
<path d="M5470 470 c0 -6 65 -10 175 -10 110 0 175 4 175 10 0 6 -65 10 -175
10 -110 0 -175 -4 -175 -10z"/>
<path d="M2842 944 l-2 -82 -117 -1 c-65 -1 -119 -4 -122 -6 -2 -3 50 -5 117
-5 l121 0 4 -82 3 -83 2 83 2 82 70 0 69 0 4 -82 3 -83 2 83 2 82 92 0 c115 0
112 8 -5 11 l-87 2 -2 56 -1 56 -6 -55 -6 -55 -65 0 -65 0 -6 80 -5 80 -2 -81z"/>
<path d="M3762 623 c-1 -34 -6 -53 -14 -54 -7 0 -64 0 -125 1 -73 1 -113 -3
-113 -9 0 -7 44 -11 124 -11 l125 0 4 -52 3 -53 2 53 2 52 131 0 c84 0 128 4
124 10 -4 6 -58 10 -130 10 l-124 0 -4 53 -3 52 -2 -52z"/>
<path d="M2845 510 c4 -6 65 -10 151 -10 89 0 144 4 144 10 0 6 -57 10 -151
10 -97 0 -148 -4 -144 -10z"/>
</g>
</svg>
